# xmcd
#
# Track frame offsets: 
#        150
#        12888
#        32667
#        45419
#        57670
#        73634
#        85143
#        98705
#        107587
#        128700
#        146802
#        167080
#        180012
#        196583
#        208991
#        224138
#        237336
#        248223
#        260101
#        273018
#        285074
#        305692
#        317711
#        333757
#        349661
#
# Disc length: 4778 seconds
#
# Revision: 0
# Processed by: cddbd v1.5.2PL0 Copyright (c) Steve Scherf et al.
# Submitted via: ExactAudioCopy v0.99pb5
#
DISCID=6812a819
DTITLE=Elvis Presley  - 75  (UK Boxset) CD3
DYEAR=1900
DGENRE=
TTITLE0=In The Ghetto
TTITLE1=Suspicious Minds
TTITLE2=Dont Cry Daddy
TTITLE3=The Wonder Of You
TTITLE4=I've Lost You
TTITLE5=You Dont Have To Say You Love Me
TTITLE6=There Goes My Everything
TTITLE7=Rags To Riches
TTITLE8=I Just Cant Help Believin
TTITLE9=Until It's Time for Me To Go
TTITLE10=An American Trilogy
TTITLE11=Burning Love
TTITLE12=Always On My Mind
TTITLE13=Fool
TTITLE14=My Boy
TTITLE15=Promised Land
TTITLE16=The Girl Of My Best Friend
TTITLE17=Suspieion
TTITLE18=Moody Blue
TTITLE19=Way Down
TTITLE20=My Way
TTITLE21=It's Only Love
TTITLE22=A Little Less Conversation (JXL Radio Edit Remix)
TTITLE23=Rubberneckin (Paul Oakenfold Remix Radio Edit)
TTITLE24=Thats All Right
EXTD=
EXTT0=
EXTT1=
EXTT2=
EXTT3=
EXTT4=
EXTT5=
EXTT6=
EXTT7=
EXTT8=
EXTT9=
EXTT10=
EXTT11=
EXTT12=
EXTT13=
EXTT14=
EXTT15=
EXTT16=
EXTT17=
EXTT18=
EXTT19=
EXTT20=
EXTT21=
EXTT22=
EXTT23=
EXTT24=
PLAYORDER=
